/* XPM */
static char * colores_xpm[] = {
"16 16 8 1",
" 	c None",
".	c #000000",
"+	c #FFFFFF",
"@	c #FF0000",
"#	c #00FF00",
"$	c #00FFFF",
"%	c #0000FF",
"&	c #FF00FF",
"................",
".++++++++++++++.",
".+....+++++++++.",
".+.@@.++....+++.",
".+....+++++++++.",
".+.##.++....+++.",
".+....+++++++++.",
".+.$$.++....+++.",
".+....+++++++++.",
".+.%%.++....+++.",
".+....+++++++++.",
".+.&&.++....+++.",
".+....+++++++++.",
".++++++++++++++.",
".++++++++++++++.",
"................"};
