/* XPM */
static char * guardar_xpm[] = {
"16 16 5 1",
" 	c None",
".	c #000000",
"+	c #00FF00",
"@	c #A0A0A0",
"#	c #FF0000",
"      ....      ",
"      .++.      ",
"      .++.      ",
"      .++.      ",
"   ....++....   ",
"    .++++++.    ",
"     .++++.     ",
"      .++.      ",
"       ..       ",
"................",
".@@@@@@@@@@@## .",
".@@@@@@@@@@@##@.",
".@@@........@@@.",
".@@@@@@@@@@@@@@.",
"................",
"                "};
