/* XPM */
static char * icono_xpm[] = {
"32 32 7 1",
" 	c None",
".	c #303030",
"+	c #FFFFC0",
"@	c #000000",
"#	c #0058C0",
"$	c #FF0000",
"%	c #C0FFFF",
"................................",
".++++++++++++++++++++++++++++++.",
".++++++++++++++++++++++++++++++.",
".++++++++++++++++++++++++++++++.",
".++++++++++++++++++++++++++++++.",
".+.++++++++++++++++++++++++++++.",
".+.++++++++++++@@@@++++++++++++.",
".+.++++######..$$$$..###+++++++.",
".+.++++#%%%%%@$$$$$$@%%#+++++++.",
".+.++++#%%%%@$$$$$$$$@%#+++++++.",
".+.+++#%%%%%@$$$$$$$$@%%#++++++.",
".+.+++#%%%%%@$$$$$$$$@%%#++++++.",
".+.+++#%%%%%@$$$$$$$$@%%#++++++.",
".+.++#%%%%%%%@$$$$$$@%%%%#+++++.",
".+.++#%%%%%%%@@$$$$@@%%%%#+++++.",
".+.++#%%%%%%%%%@@@@%%%%%%#+++++.",
".+.+#%%%%%%%%%.%%%%.%%%%%%#++++.",
".+.+#%%%%%%%%.%%%%%%.%%%%%#++++.",
".+............................+.",
".++++++++++.++++++++++.++++++++.",
".+++++++++.++++++++++++.+++++++.",
".++++++++.++++++++++++++.++++++.",
".+++++...++++++++++++++++...+++.",
".++++.$$$.++++++++++++++.$$$.++.",
".+++.$$$$$.++++++++++++.$$$$$.+.",
".+++.$$$$$.++++++++++++.$$$$$.+.",
".+++.$$$$$.++++++++++++.$$$$$.+.",
".++++.$$$.++++++++++++++.$$$.++.",
".+++++...++++++++++++++++...+++.",
".++++++++++++++++++++++++++++++.",
".++++++++++++++++++++++++++++++.",
"................................"};
