/* XPM */
static char * lista_xpm[] = {
"16 16 4 1",
" 	c None",
".	c #FF0000",
"+	c #000000",
"@	c #FFFFFF",
"           ...  ",
"          .   . ",
"          .     ",
"++++++++++.++   ",
"+@@@@@@@@@.@+   ",
"+@@@@@@@@@.@+   ",
"++++++++++.++ . ",
"+@@@@@@@@@.@+ . ",
"+@@@@@@@@@@...  ",
"+++++++++++++   ",
"+@@@@@@@@@@@+   ",
"+@@@@@@@@@@@+   ",
"+++++++++++++   ",
"+@@@@@@@@@@@+   ",
"+@@@@@@@@@@@+   ",
"+++++++++++++   "};
