/* XPM */
static char * red_xpm[] = {
"16 16 5 1",
" 	c None",
".	c #FF0000",
"+	c #000000",
"@	c #FFFFFF",
"#	c #8E2323",
"          ..... ",
"          .     ",
"          .     ",
"          .     ",
"          ...   ",
"      ++  .     ",
"     +@@+ .     ",
"     +@@+ .     ",
"     #++# ..... ",
"    #  # #      ",
"   #   #  #     ",
"  #    #   #    ",
" ++   ++   ++   ",
"+@@+ +@@+ +@@+  ",
"+@@+ +@@+ +@@+  ",
" ++   ++   +    "};
